<svg width="100" height="100" viewBox="0 0 100 100" fill="none" xmlns="http://www.w3.org/2000/svg">
<path fill-rule="evenodd" clip-rule="evenodd" d="M99.0159 6.90188L48.9845 65.2011C48.2305 66.0795 47.1373 66.6024 45.9771 66.6484C45.9227 66.6526 45.8724 66.6526 45.818 66.6526C44.7164 66.6526 43.6525 66.2134 42.8693 65.4311L22.0232 44.6121C20.3939 42.9891 20.3939 40.3496 22.0232 38.7223C23.6525 37.0993 26.2913 37.0993 27.9164 38.7223L45.5834 56.3623L92.6871 1.48065C94.1866 -0.263685 96.8211 -0.468655 98.5635 1.02888C100.314 2.52641 100.515 5.15337 99.0159 6.90188ZM60.7918 19.3967C56.5949 17.5185 51.975 16.6819 45.818 16.6819C25.1269 16.6819 8.29337 33.4977 8.29337 54.1578C8.29337 74.8263 25.1269 91.6379 45.818 91.6379C66.5091 91.6379 83.3426 74.8263 83.3426 54.1578C83.3426 50.3178 82.7771 46.9755 81.4494 42.9807C80.7206 40.8013 81.9059 38.4421 84.0881 37.7142C86.2661 36.9947 88.6326 38.1744 89.3572 40.3537C90.9656 45.181 91.6819 49.4393 91.6819 54.1578C91.6819 79.4151 71.108 99.9664 45.818 99.9664C20.5279 99.9664 -0.0458984 79.4151 -0.0458984 54.1578C-0.0458984 28.9005 20.5279 8.3534 45.818 8.3534C53.1059 8.3534 58.9447 9.44518 64.197 11.7919C66.2997 12.7289 67.2421 15.1927 66.3038 17.2926C65.3614 19.3925 62.9028 20.3337 60.7918 19.3967Z" fill="#4AC8AD"/>
</svg>
